<svg width="200" height="200" viewBox="0 0 200 200" fill="none" xmlns="http://www.w3.org/2000/svg">
<circle cx="100" cy="100" r="100" fill="white"/>
<path d="M99.8295 92.375C99.5114 89.3977 98.1705 87.0795 95.8068 85.4205C93.4659 83.7614 90.4205 82.9318 86.6705 82.9318C84.0341 82.9318 81.7727 83.3295 79.8864 84.125C78 84.9205 76.5568 86 75.5568 87.3636C74.5568 88.7273 74.0455 90.2841 74.0227 92.0341C74.0227 93.4886 74.3523 94.75 75.0114 95.8182C75.6932 96.8864 76.6136 97.7955 77.7727 98.5455C78.9318 99.2727 80.2159 99.8864 81.625 100.386C83.0341 100.886 84.4545 101.307 85.8864 101.648L92.4318 103.284C95.0682 103.898 97.6023 104.727 100.034 105.773C102.489 106.818 104.682 108.136 106.614 109.727C108.568 111.318 110.114 113.239 111.25 115.489C112.386 117.739 112.955 120.375 112.955 123.398C112.955 127.489 111.909 131.091 109.818 134.205C107.727 137.295 104.705 139.716 100.75 141.466C96.8182 143.193 92.0568 144.057 86.4659 144.057C81.0341 144.057 76.3182 143.216 72.3182 141.534C68.3409 139.852 65.2273 137.398 62.9773 134.17C60.75 130.943 59.5455 127.011 59.3636 122.375H71.8068C71.9886 124.807 72.7386 126.83 74.0568 128.443C75.375 130.057 77.0909 131.261 79.2045 132.057C81.3409 132.852 83.7273 133.25 86.3636 133.25C89.1136 133.25 91.5227 132.841 93.5909 132.023C95.6818 131.182 97.3182 130.023 98.5 128.545C99.6818 127.045 100.284 125.295 100.307 123.295C100.284 121.477 99.75 119.977 98.7045 118.795C97.6591 117.591 96.1932 116.591 94.3068 115.795C92.4432 114.977 90.2614 114.25 87.7614 113.614L79.8182 111.568C74.0682 110.091 69.5227 107.852 66.1818 104.852C62.8636 101.83 61.2045 97.8182 61.2045 92.8182C61.2045 88.7045 62.3182 85.1023 64.5455 82.0114C66.7955 78.9205 69.8523 76.5227 73.7159 74.8182C77.5795 73.0909 81.9545 72.2273 86.8409 72.2273C91.7955 72.2273 96.1364 73.0909 99.8636 74.8182C103.614 76.5227 106.557 78.8977 108.693 81.9432C110.83 84.9659 111.932 88.4432 112 92.375H99.8295ZM124.23 143V73.1818H136.571V99.2955H137.082C137.719 98.0227 138.616 96.6705 139.776 95.2386C140.935 93.7841 142.503 92.5455 144.48 91.5227C146.457 90.4773 148.98 89.9545 152.048 89.9545C156.094 89.9545 159.741 90.9886 162.991 93.0568C166.264 95.1023 168.855 98.1364 170.764 102.159C172.696 106.159 173.662 111.068 173.662 116.886C173.662 122.636 172.719 127.523 170.832 131.545C168.946 135.568 166.378 138.636 163.128 140.75C159.878 142.864 156.196 143.92 152.082 143.92C149.082 143.92 146.594 143.42 144.616 142.42C142.639 141.42 141.048 140.216 139.844 138.807C138.662 137.375 137.741 136.023 137.082 134.75H136.366V143H124.23ZM136.332 116.818C136.332 120.205 136.81 123.17 137.764 125.716C138.741 128.261 140.139 130.25 141.957 131.682C143.798 133.091 146.026 133.795 148.639 133.795C151.366 133.795 153.651 133.068 155.491 131.614C157.332 130.136 158.719 128.125 159.651 125.58C160.605 123.011 161.082 120.091 161.082 116.818C161.082 113.568 160.616 110.682 159.685 108.159C158.753 105.636 157.366 103.659 155.526 102.227C153.685 100.795 151.389 100.08 148.639 100.08C146.003 100.08 143.764 100.773 141.923 102.159C140.082 103.545 138.685 105.489 137.73 107.989C136.798 110.489 136.332 113.432 136.332 116.818Z" fill="black"/>
</svg>
